<?xml version="1.0" encoding="utf-8"?>
<!-- Generator: Adobe Illustrator 19.1.0, SVG Export Plug-In . SVG Version: 6.00 Build 0)  -->
<!DOCTYPE svg PUBLIC "-//W3C//DTD SVG 1.1//EN" "http://www.w3.org/Graphics/SVG/1.1/DTD/svg11.dtd">
<svg version="1.1" id="Layer_1" xmlns="http://www.w3.org/2000/svg" xmlns:xlink="http://www.w3.org/1999/xlink" x="0px" y="0px"
	 viewBox="-170 345.5 500 500" style="enable-background:new -170 345.5 500 500;" xml:space="preserve">
<style type="text/css">
	.st0{fill:none;stroke:#EEEEEE;stroke-width:2;stroke-miterlimit:10;}
	.st1{fill:url(#SVGID_1_);}
	.st2{fill:#F8BD30;}
	.st3{fill:#FFFFFF;}
	.st4{fill:#E0DFDE;}
	.st5{fill:none;stroke:#B2B5B5;stroke-width:5.012;stroke-miterlimit:10;}
	.st6{fill:#FFFFFF;stroke:#B2B5B5;stroke-width:5.012;stroke-miterlimit:10;}
	.st7{fill:#B2B5B5;}
	.st8{fill:#00C3DC;}
	.st9{fill:none;stroke:#B8B7B6;stroke-width:1.36;stroke-miterlimit:10;}
	.st10{fill:#FFFFFF;stroke:#B2B5B5;stroke-width:4.3063;stroke-miterlimit:10;}
	.st11{fill:none;stroke:#B2B5B5;stroke-width:2.2667;stroke-miterlimit:10;}
	.st12{fill:none;stroke:#B2B5B5;stroke-width:1.36;stroke-miterlimit:10;}
	.st13{fill:#EEEEEE;}
	.st14{fill:none;stroke:#B2B5B5;stroke-width:0.6103;stroke-miterlimit:10;}
	.st15{fill:none;stroke:#B2B5B5;stroke-width:0.8563;stroke-miterlimit:10;}
	.st16{fill:none;stroke:#B2B5B5;stroke-width:4.3063;stroke-linejoin:round;stroke-miterlimit:10;}
	.st17{fill:none;stroke:#B2B5B5;stroke-width:1.5258;stroke-linejoin:round;stroke-miterlimit:10;}
	.st18{fill:#D4D6D6;}
	.st19{fill:none;stroke:#B2B5B5;stroke-width:0.9875;stroke-miterlimit:10;}
	.st20{fill:#FFFFFF;stroke:#B2B5B5;stroke-width:0.9875;stroke-miterlimit:10;}
</style>
<g>
	<g>
		<path class="st0" d="M315.7,656.2L25.8,833"/>
		<path class="st0" d="M306.9,642.6L1.1,829.1"/>
		<path class="st0" d="M-21.7,824l318-193.9"/>
		<path class="st0" d="M-42.8,817.9l326.8-199.2"/>
		<path class="st0" d="M-62.4,810.9l332.4-202.7"/>
		<path class="st0" d="M-80.5,802.9l335.1-204.3"/>
		<path class="st0" d="M52.8,835.5l269.4-164.3"/>
		<path class="st0" d="M82.6,836.3L326,688"/>
		<path class="st0" d="M116.2,834.8L325.8,707"/>
		<path class="st0" d="M156,829.6l163.5-99.7"/>
		<path class="st0" d="M219.5,582l-331.8,202.3"/>
		<path class="st0" d="M-97.1,794.1l334.9-204.2"/>
		<path class="st0" d="M210.9,815.1l87.1-53.1"/>
		<path class="st0" d="M199.8,575.1L-126,773.8"/>
		<path class="st0" d="M178.4,569.1l-316.6,193.1"/>
		<path class="st0" d="M155.4,564.2l-304,185.4"/>
		<path class="st0" d="M130.4,560.5l-287.5,175.3"/>
		<path class="st0" d="M103.1,558.2l-266.4,162.4"/>
		<path class="st0" d="M72.8,557.6l-239.4,146"/>
		<path class="st0" d="M38.6,559.5l-204.4,124.7"/>
		<path class="st0" d="M-2.3,565.5l-156.1,95.2"/>
		<path class="st0" d="M-61.7,582.7l-70.5,43"/>
		<path class="st0" d="M-156.4,656.2L133.5,833"/>
		<path class="st0" d="M-147.6,642.6l305.9,186.5"/>
		<path class="st0" d="M181,824l-318-193.9"/>
		<path class="st0" d="M202.2,817.9l-326.8-199.2"/>
		<path class="st0" d="M221.7,810.9l-332.4-202.7"/>
		<path class="st0" d="M239.8,802.9L-95.3,598.6"/>
		<path class="st0" d="M106.5,835.5l-269.4-164.3"/>
		<path class="st0" d="M76.7,836.3L-166.6,688"/>
		<path class="st0" d="M43.1,834.8L-166.5,707"/>
		<path class="st0" d="M3.3,829.6l-163.5-99.7"/>
		<path class="st0" d="M-60.2,582l331.8,202.3"/>
		<path class="st0" d="M256.4,794.1L-78.4,589.9"/>
		<path class="st0" d="M-51.5,815.1l-87.1-53.1"/>
		<path class="st0" d="M-40.4,575.1l325.8,198.7"/>
		<path class="st0" d="M-19.1,569.1l316.6,193.1"/>
		<path class="st0" d="M3.9,564.2l304,185.4"/>
		<path class="st0" d="M29,560.5l287.5,175.3"/>
		<path class="st0" d="M56.3,558.2l266.4,162.4"/>
		<path class="st0" d="M86.6,557.6l239.4,146"/>
		<path class="st0" d="M120.7,559.5l204.4,124.7"/>
		<path class="st0" d="M161.6,565.5l156.1,95.2"/>
		<path class="st0" d="M221.1,582.7l70.5,43"/>
	</g>
	
		<radialGradient id="SVGID_1_" cx="-558.6437" cy="455.6226" r="139.9592" gradientTransform="matrix(7.600000e-03 -1 -1.7427 -1.320000e-02 878.2592 144.3394)" gradientUnits="userSpaceOnUse">
		<stop  offset="0.7901" style="stop-color:#FFFFFF;stop-opacity:0"/>
		<stop  offset="1" style="stop-color:#FFFFFF"/>
	</radialGradient>
	<path class="st1" d="M80,553.3c-63.9,0-127.7,14-176.2,42v0c-96.9,56-96.9,147.5,0,203.5c48.5,28,112.3,42,176.2,42
		s127.8-14,176.2-42c96.9-56,96.9-147.5,0-203.5v0C207.8,567.3,143.9,553.3,80,553.3L80,553.3z"/>
</g>
<g id="Arrow_6_">
	<path class="st2" d="M-78.2,535.2c0.2,0.6,0.3,1.2,0.2,1.9l-25.2,139.1c-0.3,1.9-2.2,3.2-4.1,2.9c-1.9-0.3-3.2-2.2-2.9-4.1
		l25.2-139.1c0.3-1.9,2.2-3.2,4.1-2.9C-79.7,533.2-78.7,534.1-78.2,535.2z"/>
	<path class="st2" d="M-78.3,535.2C-78.3,535.3-78.3,535.3-78.3,535.2l7.8,21.9c0.7,1.9-0.8,4.1-2.7,4.8c-1.8,0.7-4.4-0.1-5.1-1.9
		c0,0,0,0,0-0.1l-6-18.4l-9.7,4.6c-1.8,0.8-3.8,0-4.6-1.8c-0.9-1.7,0-3.9,1.8-4.8l13.6-6.3c0.9-0.4,2-0.4,2.9-0.1
		C-79.3,533.6-78.6,534.3-78.3,535.2z"/>
</g>
<g>
	<g>
		<polygon class="st3" points="276.5,670.9 197,626.8 197,491.1 276.5,535.2 		"/>
		<polygon class="st4" points="197,625.6 264.2,663.5 264.2,546.6 197,508.8 		"/>
		<polygon class="st5" points="276.5,670.9 197,626.8 197,491.1 276.5,535.2 		"/>
	</g>
	<polygon class="st6" points="251.2,688.2 171.8,644.1 171.8,508.5 251.2,552.5 	"/>
	<polygon class="st7" points="236.6,658.4 182.2,628.1 182.2,623.8 236.6,654.2 	"/>
	<polygon class="st7" points="236.7,635.2 182.4,604.8 182.4,600.5 236.7,630.9 	"/>
	<polygon class="st7" points="236.7,646.8 182.4,616.5 182.4,612.2 236.7,642.5 	"/>
	<g>
		<path id="XMLID_5986_" class="st4" d="M209.3,571.9c8.5,4.7,17.2,9.2,25.9,13.7c1.6,0.9,1.6,1.1,1.6-0.7c0-8.3,0-16.6,0-24.9
			c0-0.5,0-0.8,0-1.3s-0.3-0.8-0.8-1.1c-0.3-0.2-0.9-0.5-1.2-0.6c-6.8-3.7-13.9-7.3-20.7-11c-10.3-5.4-20.2-10.9-30.5-16.3
			c-1.6-0.9-1.3-1-1.3,0.7c0,3.3,0,6.5,0,9.8c0,5.4,0,10.8,0,16.1c0,1,0,1,1,1.6c0.5,0.3,0.7,0.6,1.2,0.8
			C192.7,563.1,201,567.4,209.3,571.9z"/>
		<path id="XMLID_5987_" class="st8" d="M206,577.1c0-1.3,0.2-1.3-1.1-1.9c-7.5-3.9-14.5-7.9-21.9-11.8c-1.1-0.6-0.8-0.6-0.8,0.5
			c0,8.3,0,16.4,0,24.7c0,1.1-0.2,1.2,1,1.8c7.5,3.9,14.5,8,21.8,11.8c1.3,0.6,1,0.8,1-0.5c0-4.1,0-8,0-12.1
			C206,585.4,206,581.3,206,577.1z"/>
		<path id="XMLID_5988_" class="st2" d="M236.7,605.3c0-4.2,0-8,0-12.3c0-1.3-0.1-1.3-1.3-1.9c-7-3.7-14.2-7.4-21.2-11.2
			c-1.1-0.5-1.3-0.4-1.3,0.5c0,8.3,0,16.4,0,24.7c0,1.3,0.1,1.3,1.4,1.9c6.8,3.7,14,7.3,20.9,11c1.3,0.8,1.5,0.8,1.5-0.5
			C236.7,613.5,236.7,609.4,236.7,605.3z"/>
	</g>
</g>
<g>
	<g id="Rocket_2_">
		<g id="XMLID_1474_">
			<path class="st3" d="M-23.5,735.4l34.4-67.1l-33.3-21.1L7,622.7C-1.7,583.3-6.7,526,18,474.5c1.2-2.4,2.3-4.7,3.4-7l0.2-0.4
				l0.3-0.3c11-8.4,28.8-13.4,47.7-13.4c17.2,0,33.5,4.1,44.6,11.2l0.4,0.3l0.2,0.5c1.4,2.9,2.9,5.9,4.4,9.1
				c1.1,2.2,2.2,4.6,3.3,7.3c0.1,0.1,0.1,0.2,0.2,0.4c16.4,39.1,19.1,87.2,7.8,139.2l29.2,25.8l-33.2,21.1l34.4,67.1l-16.8,9.8
				l-53.1-32.1c-6.5,3.2-14.3,4.9-22.5,4.9c-8.2,0-15.9-1.7-22.4-4.8l-53,32.1L-23.5,735.4z"/>
			<path class="st7" d="M69.7,455.3c17.5,0,33.2,4.2,43.6,10.9c1.4,2.9,2.9,5.9,4.4,9.1c1.2,2.4,2.3,4.9,3.3,7.4
				c0,0,0.1,0.1,0.1,0.1c20,47.5,16.4,99.1,7.5,139.3l28.2,24.9l-32.6,20.7l34.4,67l-14.4,8.4l-53-32c-6.2,3.2-14,5.1-22.5,5.1
				c-8.5,0-16.3-1.9-22.5-5.1l-52.9,32l-14.4-8.4l34.4-67L-19.4,647l28.4-23.7c-9.6-42.5-13.4-98,10.6-148c1.2-2.4,2.3-4.7,3.4-7
				C33.4,460.5,50.4,455.3,69.7,455.3 M69.7,451.7c-19.3,0-37.5,5.1-48.8,13.8l-0.7,0.5l-0.4,0.8c-1.1,2.3-2.2,4.6-3.4,7
				C5.2,497-0.9,523.3-1.9,552C-2.6,574.1-0.3,597.7,5,622l-26.7,22.3l-3.8,3.2l4.2,2.7L8.5,669l-32.8,64.1l-1.6,3.1l3,1.7l14.4,8.4
				l1.9,1.1l1.8-1.1l51.3-31c6.6,3,14.2,4.6,22.3,4.6c8.1,0,15.8-1.6,22.4-4.6l51.3,31l1.8,1.1l1.9-1.1l14.4-8.4l3-1.7l-1.6-3.1
				L129,669l29.8-18.9l4.1-2.6l-3.6-3.2l-26.6-23.5c4.9-22.8,7.1-44.8,6.7-65.7c-0.5-26.7-5.5-51.4-14.8-73.5
				c-0.1-0.2-0.1-0.3-0.2-0.5c-1.2-2.7-2.2-5.2-3.3-7.4c-1.5-3.1-3-6.1-4.4-9.1l-0.4-0.9l-0.9-0.5
				C103.8,455.9,87.2,451.7,69.7,451.7L69.7,451.7z"/>
		</g>
		<g id="XMLID_1473_">
			<path class="st3" d="M68.7,718.9c-20.9,0-38-11.2-38.5-25.1c-2.2-4.5-16.1-34-24.6-73.7c-11.8-55.2-7.7-105.7,11.7-146
				c1.2-2.4,2.3-4.7,3.4-7c0.2-0.4,0.5-0.7,0.8-1c11.1-8.5,29.1-13.6,48.2-13.6c17.4,0,33.8,4.1,45.1,11.3c0.4,0.3,0.7,0.6,1,1.1
				c1.4,2.9,2.9,5.9,4.4,9.1c24.7,51.5,19.8,108.7,11.3,147.6c-8.5,38.9-22.2,67.9-24.3,72.2C106.6,707.8,89.6,718.9,68.7,718.9z"/>
			<path class="st7" d="M69.7,455.3c17.5,0,33.2,4.2,43.6,10.9c1.4,2.9,2.9,5.9,4.4,9.1c47.3,98.4-13.2,218-13.2,218
				c0,12.7-16,22.9-35.8,22.9S32.9,706,32.9,693.3c0,0,0,0,0-0.1c-1.4-2.9-59.9-120.8-13.2-217.9c1.2-2.4,2.3-4.7,3.4-7
				C33.4,460.5,50.4,455.3,69.7,455.3 M69.7,449.9c-19.7,0-38.3,5.3-49.9,14.1c-0.7,0.5-1.2,1.2-1.6,1.9c-1.1,2.3-2.2,4.6-3.4,7
				c-11,22.8-17.2,48.7-18.4,76.7c-1,22.4,1.2,46.3,6.5,71c8.3,38.7,21.7,67.8,24.6,73.8c0.9,15.3,18.7,27.1,41.1,27.1
				c22.4,0,40.1-11.7,41.1-27c2.8-5.8,15.9-33.9,24.3-72.3c5.5-25,7.8-49.1,6.9-71.7c-1.1-28.4-7.3-54.6-18.4-77.7
				c-1.5-3.1-3-6.2-4.4-9.1c-0.4-0.9-1.1-1.6-1.9-2.2C104.5,454.2,87.6,449.9,69.7,449.9L69.7,449.9z"/>
		</g>
		<g id="XMLID_1472_">
			<path class="st3" d="M-25.4,735.6l52.1-101.7l16.1,9l0.2,1c0.1,0.5,8.3,47.3,17.2,57.6l1.7,1.9l-70,42.3L-25.4,735.6z"/>
			<path class="st7" d="M27.6,636.9l13.2,7.4c0,0,8.3,47.7,17.7,58.6l-66.7,40.4l-14.4-8.4L27.6,636.9 M25.8,630.9l-2,4l-50.2,97.9
				l-1.9,3.6l3.5,2.1l14.4,8.4l2.2,1.3l2.2-1.3l66.7-40.4l4.4-2.6l-3.3-3.9c-1.9-2.2-6-9.3-11.5-31.6c-3.2-13-5.3-24.8-5.3-24.9
				l-0.4-2l-1.8-1l-13.2-7.4L25.8,630.9L25.8,630.9z"/>
		</g>
		<line id="XMLID_1471_" class="st9" x1="-8.2" y1="743.2" x2="40.8" y2="644.2"/>
		<g id="XMLID_1468_">
			<path id="XMLID_1470_" class="st10" d="M93.7,644.2c0,0-8.3,47.7-17.7,58.6l66.7,40.4l14.4-8.4L107,636.9L93.7,644.2z"/>
			<line id="XMLID_1469_" class="st9" x1="142.4" y1="739.7" x2="93.7" y2="644.2"/>
		</g>
		<circle id="XMLID_1467_" class="st11" cx="65.4" cy="581.4" r="31.2"/>
		<ellipse id="XMLID_1465_" class="st12" cx="69.4" cy="480.8" rx="51.6" ry="25.5"/>
		<ellipse id="XMLID_1464_" class="st7" cx="69.4" cy="480.3" rx="43.1" ry="17.7"/>
		<g id="XMLID_1397_">
			<path class="st3" d="M118.2,492.4c-0.3,0-0.6,0-0.9-0.1c-17.2-5.9-32.4-25.5-38.9-50c-6.5-24.6-2.9-49.3,9.3-62.9
				c0.5-0.6,1.2-0.9,2-0.9c0.1,0,0.1,0,0.2,0c6.3,0.5,12.5,1.4,18.5,2.5c48.4,9.3,77.1,18.1,85.2,26.3c1.3,0.9,2.1,2.1,2.4,3.7
				c0.5,1.5,0.4,3-0.3,4.4c-3,11.1-23.5,33-61,65c-4.7,4-9.7,7.9-15.1,11.5C119.3,492.3,118.7,492.4,118.2,492.4z"/>
			<path class="st7" d="M89.7,381.2c6,0.5,12.1,1.3,18.2,2.5c59.6,11.4,78.7,20.2,83.9,25.8c0.7,0.4,1.3,1.1,1.5,2.3
				c0.4,1.1,0.2,2-0.2,2.8c-1.8,7.4-14.1,24.5-60.2,63.9c-4.8,4.1-9.8,7.8-14.8,11.3c-15.8-5.5-30.8-23.8-37.2-48.1
				C74.6,417.2,78.5,393.7,89.7,381.2 M89.7,375.8c-1.5,0-3,0.6-4,1.8C73,391.9,69.1,417.6,75.8,443c6.7,25.3,22.6,45.6,40.6,51.8
				c0.6,0.2,1.2,0.3,1.8,0.3c1.1,0,2.1-0.3,3-0.9c5.4-3.7,10.5-7.6,15.3-11.7c38.2-32.6,58.4-54.2,61.8-66.2c0.8-1.9,0.9-4,0.3-6
				c-0.5-2.1-1.6-3.8-3.3-5.1c-8.8-8.7-37.1-17.5-86.4-26.9c-6-1.2-12.4-2-18.8-2.5C90,375.8,89.9,375.8,89.7,375.8L89.7,375.8z"/>
		</g>
		<circle id="XMLID_1448_" class="st7" cx="65.4" cy="581.4" r="24.6"/>
	</g>
	<path id="XMLID_1438_" class="st7" d="M-64.3,740.4l2.9,3.2l3.5-0.8l6-19l14.5,11.6l-6.9,21.8l2.9,3.2l3.5-0.8l72.1-226.8l-2.9-3.2
		l-3.5,0.8l-5.5,17.2L7.8,536.1l6.4-20.1l-2.9-3.2l-3.5,0.8L-64.3,740.4z M20.5,553.6l-6.4,20.1l-14.5-11.6L6,542L20.5,553.6z
		 M12.2,579.6l-6.4,20.1l-14.5-11.6l6.4-20.1L12.2,579.6z M4,605.6l-6.4,20.1l-14.5-11.6l6.4-20.1L4,605.6z M-4.3,631.6l-6.4,20.1
		L-25.2,640l6.4-20.1L-4.3,631.6z M-12.5,657.5l-6.4,20.1L-33.4,666l6.4-20.1L-12.5,657.5z M-20.8,683.5l-6.4,20.1L-41.7,692
		l6.4-20.1L-20.8,683.5z M-29,709.5l-6.4,20.1L-50,718l6.4-20.1L-29,709.5z"/>
	<g>
		<g>
			<g>
				<path class="st7" d="M17.9,549.5c0,0-0.9-1.6-2.5-3c-1.4-1.2-2.5,1.1-2.5,1.1l-2.2,4.3l-1,0.9c-0.1-0.1-0.2-0.1-0.3-0.2
					c-0.5-0.3,0.6-1.5,1.2-2.9c0.6-1.3-0.4-2-1.5-1.3c-0.3,0.2-1.6,1.4-2.5,3.6c-0.9,2.2-0.4,4,0.3,5.2c0,0-2.6,2.8-2.4,3.1
					c-4.7,7-10.8,12.1-10.8,12.1s-9.2,3.9-18.3,6.4c-0.4-1.1-0.7-1.2-2-2.2l0.2-1.7c-3.5,0-7-0.2-10.1-2.1c-0.3-0.2-0.5-0.4-0.8-0.6
					c-0.7,0.4-1.1,1.3-1.3,1.9c-0.3,0.8-0.3,0.9-0.6,1.6c-0.2,0.4-1.1,0.9-1.1,0.9c-1.8,0.9-5.9,4.6-9.9,22.7l-2.1,10.9l-4.7,24
					c0,0.1-0.2,8.3,2.2,15.2c0.6,1.9,1.5,21.1,1.5,21.1l-1.1,22.2c0,0-0.4,2.6-1,3.9c-0.1,0.3-0.1,0.5-0.2,0.7
					c-1.1,0.4-1.9,0.9-1.9,0.9c-0.3,0.1-0.6,0.3-0.8,0.4l-0.1,0c-1.4,1-1.7,3.3-0.6,7.1c0,0,2.4,7.9,4.8,10.8
					c2.7,3.1,8.7,5.1,8.7,5.1c1.1,0.4,5.1,0.9,6.4,0.2c-0.1,0-0.2,0-0.2,0c0.1,0,0.2-0.1,0.3-0.1c0.3-0.2,0.4-0.9,0.4-0.9
					c0.1-1.6,0.7-5.8-1.5-7c0,0-2.4,0.2-2.9-2.9c-0.5-3.5-1.6-5.4-1.6-5.4l1.3-2.3l3.2-15.6c1.2,1,2.9,1.5,5,1l3.7-1.5
					c0-0.3,13.8-6,13.8-6c0.7-0.4,1.5-0.9,1.8-1.7c0.1-0.1,0.1-0.1,0.1-0.5c0,0,0-0.1,0-0.1c0,0,0-0.1,0-0.1c0,0,0,0,0,0
					c0.1-0.4-0.2-1.1-0.2-1.1c-0.5-1.8-2.8-3.5-5.2-3.2c0,0-2.7,1.4-4.1,1.3c-0.3,0-0.5-0.1-0.7-0.2c4.3-6.3,12.9-19.3,16.1-24.6
					c1.9-3.3,2.6-10.3-3.2-12.8c-5.9-2.5-10.8-7-13.4-8.2c0.3-0.7,0.4-1.4,0.4-1.7l5.1-18.4c0.9-3,2-5.7,2.5-8.3
					c2.2-0.7,2.8-1.3,3.5-1.8c9.4-5.6,13.7-12.7,14.3-13.4c0.3,0.1,0.5-0.1,0.8-0.5l1.8-1.9c1.3,0.4,3.2,0.4,5-1.2
					c1.8-1.5,2.6-3.1,2.7-3.4c0.4-1.2-0.5-1.9-1.6-1c-1.2,1-2.1,2.3-2.5,2c-0.1-0.1-0.2-0.1-0.3-0.2l0.6-1.3l3.5-3.3
					c0,0,1.9-1.8,0.4-2.8c-0.3-0.2-0.5-0.3-0.8-0.5c1.6-2.5,3.1-5.1,4.2-7.3c-0.1,0.3-0.3,0.9-0.3,0.9s0.9,0.2,1.2-0.5
					c0.5-1,4.3-9.5,4.3-9.5S20.5,552.8,17.9,549.5z M-26.7,652.9l-10.1,16.7l0.8-22.1c2.4,0.5,4.7,0.7,7.7,1.6
					C-26.1,649.7-25.2,650.5-26.7,652.9z"/>
			</g>
		</g>
		<g id="XMLID_1437_">
			<path class="st7" d="M-0.7,583.7c0,0.1,0,0.1,0,0.2C-0.7,583.9-0.7,583.8-0.7,583.7C-0.7,583.7-0.7,583.7-0.7,583.7z"/>
		</g>
		<path class="st13" d="M2.9,561.2C-7.8,573.3-8,571.5-13.3,574.3c-4.3,2.3-8.3,2.5-13,0.6c-4.6-1.9-7.7-2.4-11.3-2.4
			c-0.3-0.1-0.7-0.2-1-0.1c-1.1-0.1-1.7,0.9-1.7,1.7c-0.6,0.9-1.3,1.9-1.9,2.9c-0.2,0-0.3,0.1-0.5,0.2c-2.5,1.8-3.6,5.3-4.4,8.6
			c-2.9,6.7-4.2,13.9-5.2,20.7c-1.7,11.2-4.9,22.6-5.8,33.9c0,0.5,0.1,0.8,0.4,1c0,2.5,0.7,4.4,1.5,7.2c1.4,5.3,2,10.8,2.2,16.3
			c0.4,10.4-1.1,20.8-1.5,31.2c0,0.8-0.2,0.5,0.6,0.5c1.9-0.2,2.6,0,4.3,1.5c0,0.2,1.9,2.5,2,2.8c0.6,2.1,2.3,4.7,4.1,4.2
			c1,1,1.8-2,1.8-2c0.2-1.1,1.1-2.1,1.2-3.2c0.2-0.8,0.3-1.7,0.4-2.5c0.2-1.8,0.4-3.6,0.4-4.9c0-0.1,0-0.2,0-0.3c0-0.1,0-0.2,0-0.3
			c0-0.2,0.2-0.3,0.2-0.4c-0.1-1.1,1.8-2.8,1-3.2c-4.4-2.2-3.7-4.6-3.2-7.9c0.5,0,0.4-0.7,0.7-1.1c0.3-0.4,0.5-0.3,0.8-0.7
			c0.1,0.1,0.4-0.3,0.5-0.2c1.3,0.7,2.2,2,3.7,1.8c2.5,0.3,3.1,0.5,4.7,0.1c1.8-0.5,3.2-0.5,5.3-2.8c6.2-6.7,12.6-18.5,13.9-20.3
			c3.4-4.7,6.6-11,4-16.9c-2.9-6.3-10.8-6.4-15.5-10.5c1.6-8.8,4.4-16.9,6.1-26.2c1.5-1.4,3.5-3.2,5.2-4.3c4.4-2.9,7.6-6.4,11.6-9.9
			c4.5-4,8-8.7,9.8-13.4c0.9-2.4,5.2-7.8,5.2-10.6C13.3,557.3,4,560,2.9,561.2z"/>
		<g id="XMLID_1399_">
			<path class="st7" d="M-41.8,645.5c1.8,0.7,3.7,1.2,5.6,1.5c1.9,0.3,3.9,0.6,5.8,1c1,0.2,1.9,0.5,2.9,0.8c0.5,0.2,1,0.4,1.4,0.8
				c0.5,0.4,0.6,1.2,0.5,1.7c-0.1,0.6-0.4,1-0.6,1.5l-0.8,1.3l-1.5,2.5l-12.1,20.1l0.1-0.3c0,0.5,0,0.9,0,1.2
				c0.1,0.3,0.2,0.6,0.5,0.8c0.3,0.2,0.6,0.4,1,0.5c0.4,0.1,0.7,0.3,1.1,0.4c0.4,0.1,0.8,0.2,1.2,0.3c0.4,0.1,0.8,0.1,1.2,0.2
				c0.8,0.1,1.6,0,2.4-0.1c1.6-0.3,3.1-1,4.4-1.9c1.3-0.9,2.6-2,3.5-3.3l0.7,0.5c-1,1.4-2.3,2.5-3.8,3.5c-1.4,0.9-3,1.7-4.7,2
				c-0.9,0.2-1.7,0.2-2.6,0.2c-0.4,0-0.9-0.1-1.3-0.2c-0.4-0.1-0.8-0.2-1.3-0.3c-0.4-0.1-0.8-0.2-1.2-0.4c-0.4-0.2-0.8-0.4-1.2-0.7
				c-0.4-0.3-0.7-0.8-0.8-1.3c-0.1-0.5,0-1-0.1-1.3l0-0.2l0.1-0.1l12.1-20.1l1.5-2.5c0.5-0.9,1.1-1.7,1.3-2.5c0.1-0.4,0-0.7-0.2-1
				c-0.3-0.3-0.7-0.5-1.1-0.6c-0.9-0.3-1.8-0.5-2.8-0.8c-1.9-0.5-3.8-0.7-5.7-1.2c-1.9-0.4-3.8-1-5.6-1.8L-41.8,645.5z"/>
		</g>
		<g id="XMLID_1375_">
			<path class="st7" d="M12.3,570.1c0,0-0.1,0.1-0.3,0.4c-0.2,0.2-0.4,0.6-0.8,1.1c-0.6,1-1.5,2.4-2.5,4.1c-1,1.7-2.2,3.8-3.5,5.9
				c-0.7,1.1-1.4,2.2-2.2,3.2c-0.4,0.5-0.8,1.1-1.3,1.5c-0.2,0.3-0.5,0.5-0.8,0.7L0,587.6c-1.2,0.7-2.4,1.3-3.6,1.8
				c-1.2,0.5-2.4,1-3.6,1.5c-2.3,0.9-4.5,1.8-6.4,2.5c-3.8,1.4-6.3,2.2-6.3,2.2l-0.2-0.5c0,0,2.5-0.9,6.3-2.3c1.9-0.7,4-1.6,6.3-2.5
				c2.3-1,4.8-2,7-3.4l0.8-0.5c0.2-0.2,0.5-0.4,0.7-0.6c0.5-0.4,0.9-0.9,1.3-1.5c0.8-1,1.5-2.1,2.1-3.2c1.3-2.1,2.5-4.1,3.5-5.9
				c1-1.7,1.9-3.2,2.5-4.2c0.3-0.5,0.6-0.9,0.8-1.1c0.2-0.2,0.3-0.4,0.3-0.4L12.3,570.1z"/>
		</g>
		<g id="XMLID_1312_">
			<path id="XMLID_1353_" class="st14" d="M2.9,561.2c0.4-0.6,5.4-2.1,7.4-1.2c2.6,1.2,2.8,3.2,2.8,3.2c0.9,1.1,0.4,4,0,4.8"/>
		</g>
		<path class="st15" d="M-40.7,678.5c-0.4,0.1-0.8,0.3-1.1,0.6c-0.4,0.4-1,1-1.1,2.1C-43,682.3-43,685-43,685
			c-0.1,1.6,3.5,3.6,6.8,4.1"/>
		<path class="st16" d="M-7.3,554.5c0,10.9-7.4,20-17.4,22.7c-2,0.5-4,0.8-6.1,0.8c-13,0-23.5-10.5-23.5-23.5
			c0-13,10.5-23.5,23.5-23.5S-7.3,541.5-7.3,554.5z"/>
		<path class="st17" d="M-44.5,575.2"/>
		<path class="st2" d="M-23,576.7l3,5.6l1.8,5.9l8.2-2.9c0,0-1.5-8.7-4.7-10"/>
		<path class="st15" d="M-34.4,611.7c0,0-9.5-2.9-17.9-1.7"/>
		<path class="st14" d="M-39.1,571.8c0,0,9.1,0.9,14.5,3.4"/>
		<g>
			<path class="st7" d="M-21.3,550.6c1.1-2.1,1.2-4.1,1-4.4c0,0-0.3,1-2.5-0.3c-0.8-0.5-1.8-0.9-2.7-1.2c0,0-2.4-1-5.4-0.9
				c-15.3,0.5-16.6,14.8-9.5,22.1c3.3,3.3,3.7,4.9,3.8,5.1c1.2,1.7,4.2,1.6,4.2,1.6c1.3-0.1,4.2-1.6,5.2-4.9l0.6-3.4
				c0.4-3.9,2.5-4.6,3.2-4.1c0.7,0.5,0,1.6,0.9,2.7c0.8,1,1.5-0.4,1.3-1.1l-0.2-2.1C-21.6,557.4-22.2,552.5-21.3,550.6z"/>
			<path class="st15" d="M-43,705.4c0,0-2.7-0.4-3.2-0.9c-1.8-2-4.2-7-6.2-7.6c-2.2-0.7-5.3,0.2-5.3,0.2"/>
		</g>
		<g id="XMLID_304_">
			<g>
				<path class="st7" d="M-30.5,543.8c2.8,0,4.9,0.9,4.9,0.9c0.9,0.4,1.9,0.8,2.7,1.2c0.8,0.5,1.4,0.7,1.8,0.7
					c0.6,0,0.7-0.4,0.7-0.4c0,0,0,0,0,0c0.1,0.2,0.1,1.3-0.3,2.8l2.9,17.8c1,5.7-1.1,7.1-2.8,7.5c-1,0.2-2,0.3-3,0.3
					c-0.9,0-1.9-0.1-2.8-0.2l-0.3,2c1.3,1,1.6,1.1,2,2.2c9-2.5,18.3-6.4,18.3-6.4s6.1-5.1,10.8-12.1c-0.2-0.3,2.4-3.1,2.4-3.1
					c-0.7-1.2-1.2-2.9-0.3-5.2c0.9-2.2,2.3-3.4,2.5-3.6c0.3-0.2,0.6-0.3,0.8-0.3c0.7,0,1.1,0.6,0.7,1.6c-0.6,1.4-1.7,2.6-1.2,2.9
					c0.1,0,0.2,0.1,0.3,0.2l1-0.9l2.2-4.3c0,0,0.7-1.5,1.7-1.5c0.3,0,0.5,0.1,0.8,0.3c1.6,1.4,2.5,3,2.5,3c2.5,3.3,0.6,6.3,0.6,6.3
					s-3.8,8.5-4.3,9.5c-0.2,0.4-0.7,0.5-1,0.5c-0.1,0-0.2,0-0.2,0s0.3-0.6,0.3-0.9c-1.2,2.2-2.6,4.7-4.2,7.3
					c0.3,0.1,0.5,0.3,0.8,0.5c1.5,1-0.4,2.8-0.4,2.8l-3.5,3.3l-0.6,1.3c0.1,0.1,0.2,0.1,0.3,0.2c0,0,0.1,0.1,0.1,0.1
					c0.4,0,1.3-1.2,2.3-2c0.3-0.3,0.7-0.4,0.9-0.4c0.6,0,1,0.6,0.7,1.4c-0.1,0.3-0.9,1.9-2.7,3.4c-1.3,1-2.5,1.4-3.6,1.4
					c-0.5,0-1-0.1-1.5-0.2l-1.8,1.9c-0.3,0.4-1.3,2-1.6,2c0,0,0,0,0,0c-0.5,0.6-4.1,6.2-13.5,11.8c-0.8,0.5-1.3,1.1-3.5,1.8
					c-0.4,2.6-1.6,5.3-2.5,8.3l-5.1,18.4c0,0.4-0.1,1-0.4,1.7c2.5,1.2,7.5,5.7,13.4,8.2c5.7,2.4,5.1,9.5,3.2,12.8
					c-3.1,5.3-11.7,18.3-16.1,24.6c0.2,0.1,0.4,0.1,0.7,0.2c0.1,0,0.2,0,0.3,0c1.4,0,3.8-1.3,3.8-1.3c0.2,0,0.4,0,0.6,0
					c2.2,0,4.1,1.6,4.5,3.2c0,0,0.2,0.7,0.2,1.1c0,0,0,0,0,0c0,0,0,0.1,0,0.1c0,0.1,0,0.1,0,0.1c0,0.4,0,0.5-0.1,0.5
					c-0.3,0.8-1.1,1.3-1.8,1.7c0,0-13.8,5.7-13.8,6l-3.7,1.5c-0.5,0.1-1.1,0.2-1.6,0.2c-1.4,0-2.6-0.5-3.5-1.2l-3.2,15.6l-1.3,2.3
					c0,0,1.1,1.9,1.6,5.4c0.4,2.8,2.3,2.9,2.8,2.9c0.1,0,0.1,0,0.1,0c2.3,1.2,1.6,5.4,1.5,7c0,0-0.1,0.7-0.4,0.9
					c-0.1,0-0.2,0.1-0.3,0.1c0.1,0,0.2,0,0.2,0c-0.5,0.3-1.3,0.4-2.2,0.4c-1.6,0-3.4-0.3-4.2-0.6c0,0-6.1-2-8.7-5.1
					c-2.4-2.9-4.8-10.8-4.8-10.8c-1.2-3.8-0.8-6.1,0.6-7.1c0,0,1.8-1,2.8-1.4c0.1-0.2,0.1-0.4,0.2-0.7c0.6-1.3,1-3.9,1-3.9l1.1-22.2
					c0,0-0.8-19.2-1.5-21.1c-2.4-7-2.2-15.1-2.2-15.2l4.7-24l2.1-10.9c4-18.1,8.1-21.8,9.9-22.7c-0.1-0.1,0.9-0.5,1.1-0.9
					c0.3-0.8,0.3-0.8,0.6-1.6c0.2-0.7,0.8-1.9,1.8-2.1l0.2-0.9c-0.2-0.3-0.7-2-3.8-5.1c-7.1-7.2-5.8-21.6,9.5-22.1
					C-30.7,543.8-30.6,543.8-30.5,543.8 M-0.7,583.9c0-0.1,0-0.1,0-0.2c0,0,0,0,0,0C-0.7,583.8-0.7,583.9-0.7,583.9 M-36.7,669.6
					l10.1-16.7c1.5-2.3,0.6-3.2-1.6-3.8c-3-0.9-5.2-1.1-7.7-1.6L-36.7,669.6 M-30.5,539.5c-0.2,0-0.4,0-0.6,0
					c-8.1,0.3-14.1,4-16.6,10.2c-2.5,6.3-0.8,14,4.2,19.2c0.5,0.5,1.1,1.2,1.6,1.8c-0.3,0.5-0.6,1.1-0.8,1.8
					c-0.1,0.2-0.1,0.3-0.2,0.4c-2.3,1.3-7.2,5.5-11.5,25.3c0,0,0,0.1,0,0.1l-2.1,10.9l-4.7,24c0,0.2-0.1,0.4-0.1,0.7
					c0,0.1-0.3,8.9,2.4,16.6c0.3,1.8,0.9,11.4,1.3,19.8l-1.1,21.7c-0.1,0.7-0.3,1.4-0.4,1.9c-0.7,0.4-1.3,0.7-1.5,0.8
					c-0.1,0.1-0.3,0.2-0.4,0.2c-2.2,1.5-4.4,4.8-2.2,11.9c0.4,1.5,2.8,8.9,5.7,12.3c3.3,3.9,9.7,6.1,10.6,6.4
					c1.3,0.5,3.6,0.8,5.5,0.8c1.8,0,3.2-0.3,4.4-0.9c0.2-0.1,0.3-0.2,0.5-0.3c1.7-1.2,2.1-3.2,2.2-4c0-0.1,0-0.2,0-0.3
					c0-0.2,0-0.4,0-0.6c0.2-2.4,0.6-8.1-3.9-10.4c-0.2-0.1-0.4-0.2-0.7-0.3c-0.3-1.6-0.6-2.9-1-3.9l0.3-0.5c0.2-0.4,0.4-0.8,0.5-1.3
					l2.3-11c0.1,0,0.1,0,0.2,0c0.8,0,1.7-0.1,2.5-0.3c0.2-0.1,0.5-0.1,0.7-0.2l3.7-1.5c0.3-0.1,0.6-0.3,0.8-0.4
					c1.4-0.7,7.6-3.3,13.1-5.6c0.2-0.1,0.5-0.2,0.7-0.3l0.1,0c0.9-0.6,2.3-1.5,3.2-3.1c0.3-0.5,0.6-1.2,0.6-2.1
					c0-0.2,0.1-0.4,0.1-0.7c0-0.9-0.1-1.8-0.3-2.5c-0.7-2.6-2.9-4.8-5.6-5.8c4.2-6.2,9-13.7,11.3-17.6c1.5-2.6,2.8-7.3,1.3-11.9
					c-1.1-3.2-3.3-5.7-6.5-7c-3.2-1.4-6.3-3.5-8.7-5.3c-0.5-0.3-0.9-0.7-1.4-1l4.7-16.9c0.3-1,0.6-2.1,1-3.1c0.4-1.1,0.7-2.1,1-3.2
					c0.7-0.4,1.3-0.7,1.8-1.1c0.1-0.1,0.2-0.1,0.3-0.2c6-3.6,10.8-7.8,14.3-12.4c0.7-0.6,1.2-1.4,1.7-2.1c0.1-0.1,0.1-0.2,0.2-0.3
					l0.2-0.2c2.2-0.1,4.2-0.9,6-2.3c2.6-2.1,3.8-4.4,4.1-5.5c0.4-1.3,0.4-2.6-0.1-3.7c0.6-0.9,1-2.2,0.9-3.6c0-0.5-0.2-1-0.3-1.5
					c0.4-0.7,0.8-1.4,1.3-2.2c1-0.5,1.8-1.3,2.3-2.3c0.5-1,3.3-7.3,4.3-9.5c1.2-2.2,2.2-6.5-0.9-10.7c-0.4-0.7-1.5-2.3-3.3-3.8
					c-1.1-0.9-2.3-1.4-3.6-1.4c-1.8,0-3.2,0.9-4.3,2c-0.1,0-0.3,0-0.4,0c-1.1,0-2.2,0.3-3.2,1c0,0-0.1,0-0.1,0.1
					c-0.9,0.6-2.8,2.5-4.1,5.4c-0.8,2-1,4-0.7,5.9c-0.5,0.6-1,1.3-1.3,1.9c-3.5,5.2-7.9,9.2-9.3,10.5c-0.8,0.3-2.4,1-4.5,1.8
					c0.1-1.2,0-2.6-0.3-4.2l-2.7-16.9c0.5-2.1,0.4-3.8-0.3-5.1l0,0c-0.8-1.4-2.2-2.3-3.8-2.3c-0.3,0-0.5,0-0.8,0.1
					c-0.9-0.5-1.9-0.9-2.8-1.2l-0.1,0C-24.2,540.6-26.9,539.5-30.5,539.5L-30.5,539.5z"/>
			</g>
		</g>
		<circle class="st3" cx="-32.9" cy="548.5" r="8.1"/>
		<circle class="st18" cx="-37.9" cy="542.4" r="5"/>
		<path class="st13" d="M-33.3,540.4c-3.6,0.2-6.6,2.7-7.5,6.2c0.8,0.6,1.8,0.9,2.8,0.9c2.8,0,5-2.3,5-5
			C-32.9,541.7-33.1,541-33.3,540.4z"/>
	</g>
	<polygon class="st7" points="-20.3,704.6 -26.2,700.4 -0.3,619 6.3,621 	"/>
</g>
<g>
	<g>
		<g>
			<g>
				<path class="st3" d="M123.9,692c0,15.6,2.9,11.4,2.9,11.4s7.5,6.6,13.9,10.6c6.4,4,16.2,9.8,16.2,10.3c0,0.6,3.5,34.2,3.5,34.2
					s-2.3,2.6,0,5.3c2.3,2.7,13.9,14.3,22,12.6s-4.1-15.2-4.1-15.2l-2.9-2.7c0,0-1.7-29-2.3-34.2c-0.6-5.2-2.3-7.7-2.3-7.7l2.9-2.7
					c0,0,2.9,17,3.2,21.6c0,0-2.9,6.1,0.6,7.8c3.5,1.7,6.4,1.2,16.2,4.9c9.8,3.8,9.6-2.9,9.6-2.9s-7.2-4.6-12.7-9l-1.7-1.4l-2-28.7
					l13-7.2V674l-18.8,9.8c0,0-11-4.3-11.9-8.4c-0.9-4.1-3.8-20.6-3.8-20.6l-3.5-2.9l0.8-0.9c0,0,2.9,0.9,7.1-3.7
					c5.1-5.6,9-14.2,9-14.2s2-9.2-4-11.8c-6.1-2.6-15.4-5.3-18.5,4.2c-3.2,9.6-1.7,14.8-1.7,14.8l-6.8,3.6c0,0-10.4,1.3-12.8,6.2
					C132.4,655.2,123.9,676.5,123.9,692z M156.1,682.7c0-3.8,2.8-8.8,2.8-8.8s2.5,9.4,4.8,11.1c2.3,1.7,7.2,3.8,7.2,3.8l-5.4,2
					l-7.1-4.1C158.4,686.8,156.1,686.5,156.1,682.7z"/>
			</g>
		</g>
		<path class="st7" d="M178.7,635.9c0,0-2.2-0.7-7.2-1.9c-5-1.2-6.2-1.7-7.6,0c-1.4,1.7-3.9,5-3.9,5l-1.9-1.7c0,0,2.2-6,0-5.5
			s-4.3,0.1-4.3,3.6c0,3.5-1.4,5.7-1.4,5.7l-0.9-5.7c0,0-4.4-9.5,0.7-15.1s10.2-11.2,15-8.6c4.9,2.6,7.9-0.3,10.2,4.6s8.4,5,6.7,9.7
			C182.5,630.7,178.7,635.9,178.7,635.9z"/>
		<path class="st7" d="M191.8,734.9c0,0,24,16,7.5,15.6c-18.9-0.5-21.6-5.8-21.6-5.8s-7.3-8.5,1.9-9
			C188.8,735.1,187.5,732,191.8,734.9z"/>
		<path class="st7" d="M159,759.2c0,0,8.4,4.5,16.5-0.6c0,0,16,12,11.6,16.9c-4.4,4.9-10.5,5.4-24.1-7.4
			C162.9,768.1,152.2,760.5,159,759.2z"/>
		<path class="st19" d="M149.8,640.3c0,0-3.1,9.6,1.7,11.5c4.7,1.8,7.5-0.3,12.1,0.8c4.6,1.2,4.9,8.5,4.9,8.5"/>
		<path class="st19" d="M152.9,697.3c0,0-11.4,3.2-12.7,3.9c-1.3,0.7-13,3.2-15.9,1.7"/>
		<g>
			<g>
				<path class="st7" d="M164.9,619c3.3,0,6.8,1.2,9.7,2.5c6.1,2.6,4,11.8,4,11.8s-3.8,8.6-9,14.2c-3,3.3-5.4,3.8-6.4,3.8
					c-0.4,0-0.6-0.1-0.6-0.1l-0.8,0.9l3.5,2.9c0,0,2.9,16.5,3.8,20.6c1,4.4,11.9,8.4,11.9,8.4l18.8-9.8v25.2l-13,7.2l2,28.7l1.7,1.4
					c5.5,4.3,12.7,9,12.7,9s0.2,4-4.4,4c-1.3,0-3-0.3-5.1-1.2c-9.8-3.8-12.7-3.2-16.2-4.9c-3.5-1.7-0.6-7.8-0.6-7.8
					c-0.3-4.6-3.2-21.6-3.2-21.6l-2.9,2.7c0,0,1.7,2.5,2.3,7.7c0.6,5.2,2.3,34.2,2.3,34.2l2.9,2.7c0,0,12.2,13.5,4.1,15.2
					c-0.6,0.1-1.1,0.2-1.7,0.2c-7.9,0-18.1-10.2-20.3-12.7c-2.3-2.7,0-5.3,0-5.3s-3.5-33.6-3.5-34.2c0-0.6-9.8-6.4-16.2-10.3
					c-6.4-4-13.9-10.6-13.9-10.6s-0.4,0.5-0.8,0.5c-0.9,0-2.1-1.8-2.1-11.9c0-15.6,8.5-36.8,10.8-41.7c2.3-4.9,12.8-6.2,12.8-6.2
					l6.8-3.6c0,0-1.4-5.2,1.7-14.8C157.8,620.6,161.2,619,164.9,619 M164.9,691l5.9-2.2c0,0-4.9-2-7.2-3.8
					c-2.3-1.7-4.8-11.1-4.8-11.1s-2.8,5.1-2.8,8.8c0,3.8,0.5,6,0.5,6L164.9,691 M164.9,614.7c-6.3,0-10.9,3.4-13,9.6
					c-2,6.1-2.4,10.8-2.3,13.7l-3.5,1.9c-3.3,0.5-12.4,2.4-15.3,8.6c-2.9,6.2-11.2,27.6-11.2,43.6c0,4.9,0.3,8.4,0.8,10.8
					c1.1,4.6,3.8,5.4,5.4,5.4c2.7,2.3,7.9,6.5,12.6,9.5c1.9,1.2,4.1,2.5,6.2,3.8c2.8,1.7,6.4,3.9,8.2,5.1c0.3,3.2,1.1,11,3.2,31
					c-1.2,2.4-1.5,6,1.1,9.1c0.1,0.1,12.4,14.3,23.6,14.3c0.9,0,1.8-0.1,2.6-0.3c4-0.8,5.3-3.4,5.8-4.9c1.9-6-4.7-14.2-7.6-17.4
					c-0.1-0.1-0.2-0.2-0.3-0.3l-1.6-1.5c-0.1-1.7-0.3-4.6-0.5-7.9c0.7,0.2,1.5,0.4,2.3,0.5c2.5,0.5,5.5,1.2,10.7,3.2
					c2.5,1,4.7,1.4,6.7,1.4c3.3,0,5.3-1.4,6.5-2.5c2.3-2.4,2.3-5.4,2.3-6c-0.1-1.4-0.8-2.7-2-3.4c-0.1,0-7.1-4.5-12.3-8.7l-0.3-0.2
					l-1.7-24.1l10.6-5.9c1.4-0.8,2.2-2.2,2.2-3.8V674c0-1.5-0.8-2.9-2.1-3.7c-0.7-0.4-1.5-0.6-2.2-0.6c-0.7,0-1.4,0.2-2,0.5
					l-17.1,8.9c-3.5-1.5-6.8-3.6-7.4-4.7c-0.9-4.1-3.7-20.1-3.7-20.3c0-0.3-0.1-0.5-0.2-0.8c1.1-0.8,2.3-1.8,3.5-3.1
					c5.5-6.1,9.5-15,9.7-15.3c0.1-0.3,0.2-0.5,0.3-0.8c1-4.7,0.8-13.5-6.5-16.7C171.8,615.6,168.2,614.7,164.9,614.7L164.9,614.7z"
					/>
			</g>
		</g>
		<path class="st7" d="M202.2,673.6c0-0.3-0.1-0.4-0.3-0.4l-1.3-0.8c-0.1-0.1-0.3-0.1-0.5,0l-20.8,11.3l-0.8-0.5
			c-0.7-0.4-1.8-0.4-2.5-0.1l-31.9,17.4c-0.4,0.2-0.5,0.5-0.5,0.7l0,0l0,1.6c0,0.3-0.1,0.8,0.4,1.1l22.2,13.2l1,0.5
			c0,0,0.4,0.2,0.7,0.2c0.1,0,0.2,0,0.2,0c0.1,0,0.1,0,0.2,0c0.3,0,0.7-0.1,1-0.2l0,0c0.1,0,0.1,0,0.2,0l31.9-17.4
			c0.1-0.1,0.2-0.2,0.3-0.2l0,0c0,0,0,0,0,0c0.1-0.1,0.1-0.1,0.1-0.2c0.3-0.3,0.4-0.7,0.4-1.2l0-1.1c0-0.1-0.1-0.2-0.1-0.3
			c0.1-0.2,0.2-0.3,0.2-0.5L202.2,673.6z"/>
		<path class="st20" d="M165.5,702.4c0,0-1.9-0.3-2.5-0.8c-0.6-0.4-2.5,0.3-2.3-1.4s-1.9-2.1-1.9-2.1s-5.1,1.1-5.9-0.8
			c0,0-0.9-3.6,0-4.8s2.3-2.3,4.6-2.4s4.8,0.6,8,0.7"/>
	</g>
	<path class="st19" d="M152.9,697.3c0,0-21.2-2.8-23.2-14.7c-2.1-12.4-1.4-17.5,0.9-23.5"/>
	<path class="st19" d="M160.7,690.2c0,0-13.6-5-15.4-6.4c-4.4-3.6-4.4-15.6-2.9-18.3"/>
	<path class="st19" d="M157.5,644.7c0,0-1,7.7,8,6.8"/>
</g>
</svg>
